<svg width="22" height="22" viewBox="0 0 22 22" fill="none" xmlns="http://www.w3.org/2000/svg">
<path fill-rule="evenodd" clip-rule="evenodd" d="M14.875 9.62504C14.875 10.3145 14.7392 10.9972 14.4753 11.6341C14.2115 12.2711 13.8248 12.8498 13.3373 13.3373C12.8498 13.8249 12.271 14.2116 11.634 14.4754C10.9971 14.7392 10.3144 14.875 9.62496 14.875C8.93552 14.875 8.25283 14.7392 7.61587 14.4754C6.97891 14.2116 6.40016 13.8249 5.91265 13.3373C5.42514 12.8498 5.03843 12.2711 4.77459 11.6341C4.51075 10.9972 4.37496 10.3145 4.37496 9.62504C4.37496 8.23265 4.92808 6.89729 5.91265 5.91273C6.89721 4.92816 8.23257 4.37504 9.62496 4.37504C11.0173 4.37504 12.3527 4.92816 13.3373 5.91273C14.3218 6.89729 14.875 8.23265 14.875 9.62504ZM14.1872 16.044C12.5779 17.1883 10.5974 17.6861 8.63825 17.4389C6.67914 17.1917 4.88438 16.2176 3.60967 14.7095C2.33496 13.2014 1.67333 11.2694 1.75592 9.2965C1.83851 7.32358 2.65928 5.45368 4.05556 4.05739C5.45185 2.66111 7.32175 1.84034 9.29467 1.75775C11.2676 1.67516 13.1995 2.33679 14.7076 3.6115C16.2157 4.88621 17.1899 6.68097 17.4371 8.64008C17.6843 10.5992 17.1864 12.5797 16.0422 14.189L20.615 18.76C20.7439 18.8802 20.8473 19.0251 20.9191 19.1861C20.9908 19.3471 21.0294 19.5209 21.0325 19.6971C21.0356 19.8734 21.0032 20.0484 20.9372 20.2118C20.8712 20.3753 20.7729 20.5237 20.6483 20.6484C20.5236 20.773 20.3752 20.8712 20.2118 20.9373C20.0483 21.0033 19.8733 21.0357 19.697 21.0326C19.5208 21.0295 19.347 20.9909 19.186 20.9192C19.025 20.8474 18.8801 20.744 18.76 20.615L14.1872 16.044Z" fill="#0D1634" fill-opacity="0.16" style="fill:#0D1634;fill:color(display-p3 0.0510 0.0863 0.2039);fill-opacity:0.16;"/>
</svg>
