<svg width="24" height="25" viewBox="0 0 24 25" fill="none" xmlns="http://www.w3.org/2000/svg">
<path fill-rule="evenodd" clip-rule="evenodd" d="M20.723 16.6339C21.5514 15.199 21.0598 13.3642 19.6249 12.5358L19.5628 12.4999L19.6249 12.4641C21.0597 11.6357 21.5514 9.80091 20.7229 8.36603L19.7229 6.63398C18.8945 5.1991 17.0597 4.70747 15.6249 5.5359L15.5627 5.5718V5.5C15.5627 3.84315 14.2195 2.5 12.5627 2.5L10.5627 2.5C8.90583 2.5 7.56268 3.84315 7.56268 5.5L7.56268 5.57168L7.50056 5.53582C6.06568 4.70739 4.23091 5.19902 3.40248 6.63389L2.40248 8.36594C1.57406 9.80082 2.06568 11.6356 3.50056 12.464L3.56277 12.4999L3.5005 12.5359C2.06562 13.3643 1.574 15.1991 2.40242 16.634L3.40242 18.366C4.23085 19.8009 6.06562 20.2925 7.5005 19.4641L7.56268 19.4282V19.5C7.56268 21.1569 8.90582 22.5 10.5627 22.5H12.5627C14.2195 22.5 15.5627 21.1569 15.5627 19.5V19.4281L15.6249 19.464C17.0598 20.2925 18.8946 19.8008 19.723 18.3659L20.723 16.6339ZM16.5627 7.30384C15.2294 8.07365 13.5627 7.1114 13.5627 5.57179V5.5C13.5627 4.94772 13.115 4.5 12.5627 4.5L10.5627 4.5C10.0104 4.5 9.56271 4.94768 9.56268 5.49994L9.56268 5.57169C9.56267 7.11124 7.8961 8.07349 6.56277 7.30378L6.50056 7.26787C6.02227 6.99173 5.41068 7.1556 5.13453 7.63389L4.13453 9.36595C3.85839 9.84424 4.02227 10.4558 4.50056 10.732L4.56269 10.7678C5.89611 11.5376 5.89615 13.4622 4.56277 14.232L4.5005 14.2679C4.02221 14.5441 3.85833 15.1557 4.13447 15.634L5.13448 17.366C5.41062 17.8443 6.02221 18.0082 6.5005 17.7321L6.56269 17.6961C7.89602 16.9264 9.56267 17.8886 9.56268 19.4282V19.5C9.56268 20.0523 10.0104 20.5 10.5627 20.5H12.5627C13.115 20.5 13.5627 20.0523 13.5627 19.5V19.4281C13.5627 17.8884 15.2294 16.9262 16.5628 17.6961L16.6249 17.732C17.1032 18.0081 17.7148 17.8442 17.9909 17.3659L18.9909 15.6339C19.2671 15.1556 19.1032 14.544 18.6249 14.2679L18.5627 14.232C17.2295 13.4621 17.2295 11.5377 18.5628 10.7679L18.6249 10.732C19.1032 10.4559 19.267 9.84431 18.9909 9.36603L17.9909 7.63398C17.7147 7.15568 17.1032 6.99181 16.6249 7.26795L16.5627 7.30384Z" fill="#0064D2" style="fill:#0064D2;fill:color(display-p3 0.0000 0.3922 0.8235);fill-opacity:1;"/>
<path fill-rule="evenodd" clip-rule="evenodd" d="M11.5625 14.4999C12.6671 14.4999 13.5625 13.6045 13.5625 12.4999C13.5625 11.3954 12.6671 10.4999 11.5625 10.4999C10.4579 10.4999 9.5625 11.3954 9.5625 12.4999C9.5625 13.6045 10.4579 14.4999 11.5625 14.4999ZM11.5625 16.4999C13.7716 16.4999 15.5625 14.7091 15.5625 12.4999C15.5625 10.2908 13.7716 8.49994 11.5625 8.49994C9.35336 8.49994 7.5625 10.2908 7.5625 12.4999C7.5625 14.7091 9.35336 16.4999 11.5625 16.4999Z" fill="#0064D2" style="fill:#0064D2;fill:color(display-p3 0.0000 0.3922 0.8235);fill-opacity:1;"/>
</svg>
