<svg width="22" height="22" viewBox="0 0 22 22" fill="none" xmlns="http://www.w3.org/2000/svg">
<path d="M16.891 11C16.8921 12.1782 16.5429 13.3302 15.8876 14.3094C15.2323 15.2885 14.3006 16.0507 13.211 16.499C12.1213 16.9486 10.923 17.0655 9.76693 16.835C8.6109 16.6046 7.54898 16.0371 6.715 15.204C5.88177 14.3708 5.31477 13.309 5.08594 12.1531C4.85711 10.9972 4.97675 9.79937 5.4297 8.71158C5.88264 7.62379 6.64847 6.69504 7.63004 6.04315C8.61161 5.39125 9.76469 5.04559 10.943 5.05001C12.5218 5.05046 14.0359 5.67733 15.153 6.79301C15.7049 7.34562 16.1424 8.00165 16.4404 8.72354C16.7385 9.44543 16.8913 10.219 16.89 11M2.203 12.048H1.05C0.771869 12.048 0.5051 11.9377 0.308245 11.7412C0.111389 11.5447 0.000530255 11.2781 4.81715e-07 11C-0.000131728 10.8622 0.0269516 10.7257 0.0796969 10.5983C0.132442 10.471 0.209811 10.3553 0.307365 10.258C0.404919 10.1606 0.520739 10.0834 0.648178 10.0309C0.775618 9.97844 0.91217 9.95161 1.05 9.95201H2.203C2.48113 9.95201 2.7479 10.0624 2.94476 10.2588C3.14161 10.4553 3.25247 10.7219 3.253 11C3.25313 11.1378 3.22605 11.2743 3.1733 11.4017C3.12056 11.529 3.04319 11.6447 2.94564 11.7421C2.84808 11.8394 2.73226 11.9166 2.60482 11.9691C2.47738 12.0216 2.34083 12.0484 2.203 12.048ZM20.95 12.048H19.807C19.529 12.0477 19.2625 11.9373 19.0659 11.7408C18.8692 11.5444 18.7585 11.278 18.758 11C18.7579 10.8622 18.785 10.7257 18.8377 10.5983C18.8904 10.471 18.9678 10.3553 19.0654 10.258C19.1629 10.1606 19.2787 10.0834 19.4062 10.0309C19.5336 9.97844 19.6702 9.95161 19.808 9.95201H20.951C21.229 9.95227 21.4955 10.0627 21.6921 10.2592C21.8887 10.4556 21.9995 10.7221 22 11C22.0001 11.1378 21.973 11.2743 21.9203 11.4017C21.8676 11.529 21.7902 11.6447 21.6926 11.7421C21.5951 11.8394 21.4793 11.9166 21.3518 11.9691C21.2244 12.0216 21.0878 12.0484 20.95 12.048ZM10.985 3.24801C10.7069 3.24801 10.4401 3.13766 10.2432 2.94118C10.0464 2.7447 9.93553 2.47814 9.935 2.20001V1.04801C9.93487 0.910092 9.96198 0.77351 10.0148 0.646105C10.0676 0.5187 10.1451 0.402983 10.2427 0.305602C10.3404 0.20822 10.4563 0.131093 10.5839 0.0786497C10.7114 0.0262064 10.8481 -0.000519318 10.986 7.64344e-06C11.264 0.000271861 11.5305 0.110739 11.7271 0.307191C11.9238 0.503643 12.0345 0.77005 12.035 1.04801V2.20001C12.0351 2.33784 12.008 2.47434 11.9553 2.60168C11.9026 2.72902 11.8252 2.84469 11.7276 2.94206C11.6301 3.03943 11.5143 3.11657 11.3868 3.16908C11.2594 3.22158 11.1228 3.2484 10.985 3.24801ZM10.985 22C10.707 22 10.4404 21.8898 10.2436 21.6935C10.0468 21.4973 9.9358 21.231 9.935 20.953V19.8C9.93487 19.6622 9.96195 19.5257 10.0147 19.3983C10.0674 19.271 10.1448 19.1553 10.2424 19.058C10.3399 18.9606 10.4557 18.8834 10.5832 18.8309C10.7106 18.7784 10.8472 18.7516 10.985 18.752C11.263 18.7523 11.5295 18.8627 11.7261 19.0592C11.9228 19.2556 12.0335 19.522 12.034 19.8V20.952C12.0341 21.0898 12.007 21.2263 11.9543 21.3537C11.9016 21.481 11.8242 21.5967 11.7266 21.6941C11.6291 21.7914 11.5133 21.8686 11.3858 21.9211C11.2584 21.9736 11.1228 22.0004 10.985 22ZM4.753 5.82501C4.61423 5.8245 4.47694 5.79648 4.34907 5.74259C4.22119 5.68869 4.10527 5.60998 4.008 5.51101L3.189 4.70401C3.04127 4.55701 2.94058 4.36941 2.89972 4.16505C2.85887 3.9607 2.87969 3.7488 2.95954 3.55631C3.03939 3.36381 3.17466 3.19939 3.34817 3.08396C3.52169 2.96852 3.7256 2.90728 3.934 2.90801C4.214 2.90801 4.482 3.01901 4.679 3.21601L5.498 4.03301C5.69353 4.22925 5.80332 4.49498 5.80332 4.77201C5.80332 5.04903 5.69353 5.31477 5.498 5.51101C5.40073 5.60998 5.28481 5.68869 5.15693 5.74259C5.02906 5.79648 4.89177 5.8245 4.753 5.82501ZM18.024 19.046C17.7486 19.045 17.4847 18.9358 17.289 18.742L16.471 17.925C16.2748 17.7602 16.1458 17.5291 16.1085 17.2756C16.0712 17.022 16.1282 16.7636 16.2688 16.5493C16.4093 16.3349 16.6235 16.1796 16.8709 16.1126C17.1182 16.0457 17.3816 16.0718 17.611 16.186C17.7417 16.25 17.855 16.3373 17.951 16.448L18.769 17.265C18.9642 17.4612 19.0738 17.7267 19.0738 18.0035C19.0738 18.2803 18.9642 18.5458 18.769 18.742C18.6709 18.8392 18.5546 18.916 18.4268 18.9682C18.2989 19.0204 18.1621 19.0468 18.024 19.046ZM17.216 5.82501C17.0605 5.8256 16.9068 5.79164 16.766 5.72558C16.6252 5.65951 16.5008 5.563 16.4019 5.44301C16.3029 5.32301 16.2319 5.18254 16.1939 5.03174C16.1558 4.88093 16.1518 4.72357 16.182 4.57101C16.222 4.36701 16.324 4.18001 16.472 4.03301L17.29 3.21601C17.4895 3.03104 17.7531 2.93075 18.0251 2.93627C18.2971 2.94179 18.5564 3.05268 18.7483 3.24559C18.9401 3.4385 19.0496 3.69836 19.0537 3.97041C19.0578 4.24247 18.956 4.50547 18.77 4.70401L17.95 5.51101C17.7562 5.70823 17.4925 5.82106 17.216 5.82501ZM3.934 19.046C3.79593 19.0468 3.65906 19.0204 3.53123 18.9682C3.40339 18.916 3.28709 18.8392 3.189 18.742C2.99353 18.5459 2.88377 18.2804 2.88377 18.0035C2.88377 17.7266 2.99353 17.4611 3.189 17.265L4.008 16.448C4.10559 16.3497 4.22166 16.2718 4.34952 16.2185C4.47738 16.1653 4.61451 16.1379 4.753 16.1379C4.89149 16.1379 5.02862 16.1653 5.15648 16.2185C5.28434 16.2718 5.40041 16.3497 5.498 16.448C5.69323 16.6442 5.80282 16.9097 5.80282 17.1865C5.80282 17.4633 5.69323 17.7288 5.498 17.925L4.679 18.742C4.58091 18.8392 4.46461 18.916 4.33678 18.9682C4.20894 19.0204 4.07207 19.0468 3.934 19.046Z" fill="#FCC921" style="fill:#FCC921;fill:color(display-p3 0.9877 0.7876 0.1300);fill-opacity:1;"/>
</svg>
